HIERARCHY
ROOT joint_Root
{
	OFFSET 0.0 0.0 0.0
	CHANNELS 6 Xposition Yposition Zposition Zrotation Xrotation Yrotation 
	JOINT Hips
	{
		OFFSET -0.726466 93.3139 -2.00062
		CHANNELS 6 Xposition Yposition Zposition Zrotation Xrotation Yrotation 
		JOINT Spine
		{
			OFFSET 15.7357 0.0 0.0
			CHANNELS 6 Xposition Yposition Zposition Zrotation Xrotation Yrotation 
			JOINT Chest
			{
				OFFSET 8.98455 -0.406207 0.0
				CHANNELS 6 Xposition Yposition Zposition Zrotation Xrotation Yrotation 
				JOINT Neck
				{
					OFFSET 16.3773 0.0 0.0
					CHANNELS 6 Xposition Yposition Zposition Zrotation Xrotation Yrotation 
					JOINT Head
					{
						OFFSET 6.45672 0.0 0.0
						CHANNELS 6 Xposition Yposition Zposition Zrotation Xrotation Yrotation 
						End Site
						{
							OFFSET 0.0 0.0 0.0
						}
					}
				}
				JOINT Shoulder_L
				{
					OFFSET 12.9942 -0.242716 4.98039
					CHANNELS 6 Xposition Yposition Zposition Zrotation Xrotation Yrotation 
					JOINT UpperArm_L
					{
						OFFSET 5.34809 0.0 0.0
						CHANNELS 6 Xposition Yposition Zposition Zrotation Xrotation Yrotation 
						JOINT LowerArm_L
						{
							OFFSET 24.3286 1.87007e-05 0.0
							CHANNELS 6 Xposition Yposition Zposition Zrotation Xrotation Yrotation 
							JOINT Hand_L
							{
								OFFSET 22.2916 0.0 0.0
								CHANNELS 6 Xposition Yposition Zposition Zrotation Xrotation Yrotation 
								End Site
								{
									OFFSET 0.0 0.0 0.0
								}
							}
						}
					}
				}
				JOINT Shoulder_R
				{
					OFFSET 12.9945 -0.242716 -4.98039
					CHANNELS 6 Xposition Yposition Zposition Zrotation Xrotation Yrotation 
					JOINT UpperArm_R
					{
						OFFSET -5.34813 0.0 0.0
						CHANNELS 6 Xposition Yposition Zposition Zrotation Xrotation Yrotation 
						JOINT LowerArm_R
						{
							OFFSET -24.3289 0.000322201 0.0
							CHANNELS 6 Xposition Yposition Zposition Zrotation Xrotation Yrotation 
							JOINT Hand_R
							{
								OFFSET -22.2915 -0.000108084 0.0
								CHANNELS 6 Xposition Yposition Zposition Zrotation Xrotation Yrotation 
								End Site
								{
									OFFSET 0.0 0.0 0.0
								}
							}
						}
					}
				}
			}
		}
		JOINT UpperLeg_L
		{
			OFFSET -2.19248 -6.46944 0.0
			CHANNELS 6 Xposition Yposition Zposition Zrotation Xrotation Yrotation 
			JOINT LowerLeg_L
			{
				OFFSET 39.0811 0.0 -1.23785e-05
				CHANNELS 6 Xposition Yposition Zposition Zrotation Xrotation Yrotation 
				JOINT Foot_L
				{
					OFFSET 40.9854 0.0 -1.26872e-05
					CHANNELS 6 Xposition Yposition Zposition Zrotation Xrotation Yrotation 
					JOINT Toes_L
					{
						OFFSET 11.7543 0.0 0.0
						CHANNELS 6 Xposition Yposition Zposition Zrotation Xrotation Yrotation 
						End Site
						{
							OFFSET 0.0 0.0 0.0
						}
					}
				}
			}
		}
		JOINT UpperLeg_R
		{
			OFFSET -2.19251 6.46944 0.0
			CHANNELS 6 Xposition Yposition Zposition Zrotation Xrotation Yrotation 
			JOINT LowerLeg_R
			{
				OFFSET -39.0811 -0.00228153 -0.0401928
				CHANNELS 6 Xposition Yposition Zposition Zrotation Xrotation Yrotation 
				JOINT Foot_R
				{
					OFFSET -40.9854 0.0 0.0
					CHANNELS 6 Xposition Yposition Zposition Zrotation Xrotation Yrotation 
					JOINT Toes_R
					{
						OFFSET -11.7543 0.0 0.0
						CHANNELS 6 Xposition Yposition Zposition Zrotation Xrotation Yrotation 
						End Site
						{
							OFFSET 0.0 0.0 0.0
						}
					}
				}
			}
		}
	}
}
MOTION
Frames:	4
Frame Time:	0.0333333
0.000000 0.000000 0.000000 0.000000 0.000000 -0.000000 -0.672596 92.157400 0.007441 88.173900 -1.866230 4.812650 15.735700 0.000005 -0.000001 86.619500 84.958900 -86.042000 8.984550 -0.406207 -0.000000 2.302060 -0.621583 1.166360 16.377300 -0.000001 -0.000001 4.577040 -2.540490 0.573877 6.456720 -0.000001 -0.000000 1.794420 -1.801640 1.505560 12.994200 -0.242716 4.980390 -89.936200 -0.207983 -72.952800 5.348090 -0.000007 -0.000001 -68.501800 37.878500 -15.266900 24.328600 0.000019 0.000005 1.980300 4.642060 -23.132300 22.291600 -0.000001 0.000005 3.562010 5.469460 -5.345000 12.994500 -0.242716 -4.980390 87.544900 7.391430 -71.567700 -5.348130 -0.000001 -0.000004 -65.261900 39.732700 -15.180200 -24.328900 0.000322 -0.000009 2.043020 6.950250 -16.433200 -22.291500 -0.000108 -0.000004 9.709990 5.407800 -3.192570 -2.192480 -6.469440 -0.000000 -175.523000 -6.649260 -1.344820 39.081100 -0.000007 -0.000012 -0.119913 0.279334 23.233000 40.985400 -0.000006 -0.000013 -0.381337 2.657830 -67.207600 11.754300 -0.000000 0.000003 -0.000053 -0.000599 -16.600800 -2.192510 6.469440 -0.000001 179.306000 12.346500 -179.675000 -39.081100 -0.002282 -0.040193 -0.032109 0.094167 20.618300 -40.985400 0.000008 0.000006 3.640550 7.492270 -66.633300 -11.754300 -0.000006 -0.000006 -0.007560 -0.084404 -20.009700
0.000000 0.000000 0.000000 0.000000 0.000000 -0.000000 -0.665660 92.147700 -0.040527 88.209500 -1.726630 4.914650 15.735700 0.000005 -0.000001 86.194100 84.928100 -85.585700 8.984550 -0.406207 -0.000000 2.359600 -0.701475 1.230050 16.377300 -0.000001 -0.000001 4.522350 -2.761100 0.619186 6.456720 -0.000001 -0.000000 1.931880 -2.070470 1.625330 12.994200 -0.242716 4.980390 -89.968100 -0.104378 -73.010300 5.348090 -0.000007 -0.000001 -69.059300 34.635200 -15.252100 24.328600 0.000019 0.000005 2.734080 6.029430 -24.448600 22.291600 -0.000001 0.000005 1.404250 5.452100 -4.712370 12.994500 -0.242716 -4.980390 87.571100 7.308390 -71.559300 -5.348130 -0.000001 -0.000004 -65.288600 39.603300 -15.196700 -24.328900 0.000322 -0.000009 2.053820 7.019480 -16.362100 -22.291500 -0.000108 -0.000004 9.627380 5.407850 -3.194230 -2.192480 -6.469440 -0.000000 -175.567000 -6.542190 -1.341060 39.081100 -0.000007 -0.000012 -0.117703 0.273091 23.316200 40.985400 -0.000006 -0.000013 -0.360882 2.697710 -67.204400 11.754300 -0.000000 0.000003 -0.000047 -0.000537 -16.598400 -2.192510 6.469440 -0.000001 179.225000 12.440600 -179.647000 -39.081100 -0.002282 -0.040193 -0.036398 0.104949 20.729200 -40.985400 0.000008 0.000006 3.565810 7.497130 -66.655200 -11.754300 -0.000006 -0.000006 -0.007432 -0.083329 -19.965800
0.000000 0.000000 0.000000 0.000000 0.000000 -0.000000 -0.689372 92.151400 -0.132587 88.188400 -1.506670 4.945750 15.735700 0.000005 -0.000001 86.548500 84.952400 -85.902400 8.984550 -0.406207 -0.000000 2.314880 -0.638030 1.303880 16.377300 -0.000001 -0.000001 4.622210 -3.072860 0.708067 6.456720 -0.000001 -0.000000 2.018530 -2.588880 1.884120 12.994200 -0.242716 4.980390 -90.040800 0.132310 -72.854500 5.348090 -0.000007 -0.000001 -67.985100 31.409800 -17.129700 24.328600 0.000019 0.000005 2.372640 4.763050 -26.524800 22.291600 -0.000001 0.000005 1.247230 5.446170 -4.500730 12.994500 -0.242716 -4.980390 87.583000 7.257220 -71.523800 -5.348130 -0.000001 -0.000004 -65.584500 39.101900 -14.845400 -24.328900 0.000322 -0.000009 2.084340 7.115690 -16.380900 -22.291500 -0.000108 -0.000004 9.633890 5.407250 -3.174340 -2.192480 -6.469440 -0.000000 -175.532000 -6.479250 -1.443430 39.081100 -0.000007 -0.000012 -0.118207 0.273378 23.383400 40.985400 -0.000006 -0.000013 -0.345091 2.815400 -67.148700 11.754300 -0.000000 0.000003 -0.000053 -0.000598 -16.600800 -2.192510 6.469440 -0.000001 179.262000 12.586800 -179.660000 -39.081100 -0.002282 -0.040193 -0.036008 0.103944 20.724300 -40.985400 0.000008 0.000006 3.542500 7.410440 -66.601100 -11.754300 -0.000006 -0.000006 -0.007348 -0.082626 -19.937100
0.000000 0.000000 0.000000 0.000000 0.000000 -0.000000 -0.722402 92.147300 -0.225162 88.187400 -1.140210 5.018370 15.735700 0.000005 -0.000001 87.373100 84.983800 -86.719600 8.984550 -0.406207 -0.000000 2.259070 -0.490864 1.315340 16.377300 -0.000001 -0.000001 4.864630 -3.445390 0.850809 6.456720 -0.000001 -0.000000 2.132890 -3.311030 2.456880 12.994200 -0.242716 4.980390 -90.080300 0.256776 -72.646700 5.348090 -0.000007 -0.000001 -66.105900 27.350300 -20.454800 24.328600 0.000019 0.000005 2.196020 3.725440 -30.560500 22.291600 -0.000001 0.000005 2.904800 5.466510 -5.223770 12.994500 -0.242716 -4.980390 87.578200 7.284540 -71.553500 -5.348130 -0.000001 -0.000004 -65.908600 38.704800 -14.307100 -24.328900 0.000322 -0.000009 2.089840 7.137420 -16.374800 -22.291500 -0.000108 -0.000004 9.672020 5.406340 -3.144370 -2.192480 -6.469440 -0.000000 -175.521000 -6.263090 -1.548410 39.081100 -0.000007 -0.000012 -0.117376 0.270027 23.493800 40.985400 -0.000006 -0.000013 -0.325522 2.970010 -67.104600 11.754300 -0.000000 0.000003 -0.000046 -0.000522 -16.597900 -2.192510 6.469440 -0.000001 179.238000 12.937000 -179.648000 -39.081100 -0.002282 -0.040193 -0.040114 0.114477 20.777300 -40.985400 0.000008 0.000006 3.477320 7.371540 -66.576700 -11.754300 -0.000006 -0.000006 -0.007654 -0.085184 -20.041500
